<?xml version="1.0" encoding="utf-8"?>
<!-- Generator: Adobe Illustrator 19.2.0, SVG Export Plug-In . SVG Version: 6.00 Build 0)  -->
<svg version="1.2" baseProfile="tiny" xmlns="http://www.w3.org/2000/svg" xmlns:xlink="http://www.w3.org/1999/xlink" x="0px"
	 y="0px" viewBox="0 0 1050.9 179.9" xml:space="preserve">
<g id="Calque_3">
</g>
<g id="Calque_1">
	<g>
		<linearGradient id="SVGID_1_" gradientUnits="userSpaceOnUse" x1="236.3959" y1="60.6407" x2="236.3959" y2="170.77">
			<stop  offset="0" style="stop-color:#FF2D1D"/>
			<stop  offset="1" style="stop-color:#C62231"/>
		</linearGradient>
		<path fill="url(#SVGID_1_)" stroke="#FFFFFF" stroke-width="5" stroke-miterlimit="10" d="M286.7,73.6l-36.6-51.4L208,127
			c1.9-5.3,3.1-10.9,3.1-16.9c0-21.9-14.1-40.5-34.1-46.8V57c0-3.4-3-5.5-6.4-5.5h-17.7c-3.4,0-5.9,2-5.9,5.5v6.5
			c-20,6.4-34.1,24.9-34.1,46.7c0,27.2,21.9,49.1,49.1,49.1c20.2,0,37.5-12.2,45.1-29.6l-3.6,8.9l36,26.1l18-46.5l24.1,41.6
			l23.7-36.9l14.7,52.8l40.2-29.5L326.5,36.6L286.7,73.6z M148.3,84.2c-9.7,5.1-15.6,15-15.6,25.9c0,2.5-2.1,4.6-4.6,4.6
			c-2.5,0-4.6-2.1-4.6-4.6c0-14.3,7.9-27.4,20.6-34c2.2-1.2,5-0.3,6.2,1.9C151.4,80.2,150.5,83,148.3,84.2z"/>
		<linearGradient id="SVGID_2_" gradientUnits="userSpaceOnUse" x1="419.8008" y1="60.6407" x2="419.8008" y2="170.77">
			<stop  offset="0" style="stop-color:#FF2D1D"/>
			<stop  offset="1" style="stop-color:#C62231"/>
		</linearGradient>
		<path fill="url(#SVGID_2_)" stroke="#FFFFFF" stroke-width="5" stroke-miterlimit="10" d="M451,87.8c6.8-5.7,11.4-11,13.9-15.9
			c2.4-4.9,3.5-9.4,3.1-13.4c-0.4-4-1.7-7.6-4.1-10.8c-2.3-3.2-4.9-5.8-7.5-7.9c-2.7-2.1-6.1-4.3-10.4-6.6c-4.4-1.2-9.5-2-15.1-2.3
			c-5.6-0.3-13.4-0.3-23.2,0.1c-9.8,0.4-22.3,1.7-37.5,3.8l-5.4,124.8c14.2,2.3,26.4,3.8,36.8,4.4c10.3,0.6,18.8,0.7,25.3,0.3
			c6.5-0.4,11.8-1.1,15.7-2c3.9-0.9,6.6-1.7,8-2.5c1.4-0.7,2.1-1.1,2.2-1.2c4.6-4.1,8.3-7.9,11.1-11.4c2.8-3.5,5.3-7.6,7.5-12.3
			c2.2-4.7,3.3-9.7,3.2-14.9c-0.1-5.2-1.9-10.6-5.4-16.2C465.8,98.3,459.7,93,451,87.8z M411.2,67.3c4.3-1.5,7.6-2,9.7-1.5
			c2.1,0.5,3.5,1.3,4.3,2.5c0.7,1.2,1,3,0.8,5.4c-0.9,2.6-1.9,4.7-3.1,6.2c-1.2,1.5-2.9,2.7-5,3.7c-2.1,1-4.8,1.2-8.1,0.5
			L411.2,67.3z M428.8,125.5c-1.5,1.5-3.9,2.7-7.2,3.5c-3.3,0.9-7.9,0.9-13.7,0.1l-1.2-16.9c5.2-2.2,9.5-3.3,12.8-3.5
			c3.3-0.1,5.8,0.3,7.5,1.2c1.8,0.9,3,2.2,3.7,3.6c0.7,1.5,1.1,2.8,1.2,3.8c0.1,1.1,0.2,1.7,0.1,1.8
			C431.4,121.9,430.3,124,428.8,125.5z"/>
		<linearGradient id="SVGID_3_" gradientUnits="userSpaceOnUse" x1="530.7593" y1="60.6407" x2="530.7593" y2="170.77">
			<stop  offset="0" style="stop-color:#FF2D1D"/>
			<stop  offset="1" style="stop-color:#C62231"/>
		</linearGradient>
		<polygon fill="url(#SVGID_3_)" stroke="#FFFFFF" stroke-width="5" stroke-miterlimit="10" points="570.7,74.7 577.7,34.5 
			489.2,36.4 483.8,161 569.5,160.8 572.6,116.8 526.7,118.7 527.5,109.9 554.3,109.2 559.1,81.4 529.9,82 530.5,74.3 		"/>
		<linearGradient id="SVGID_4_" gradientUnits="userSpaceOnUse" x1="641.5726" y1="60.6407" x2="641.5726" y2="170.77">
			<stop  offset="0" style="stop-color:#FF2D1D"/>
			<stop  offset="1" style="stop-color:#C62231"/>
		</linearGradient>
		<path fill="url(#SVGID_4_)" stroke="#FFFFFF" stroke-width="5" stroke-miterlimit="10" d="M679.2,103.2
			c5.4-6.1,9.4-12.5,12.1-19.2c2.7-6.6,4-13.2,3.8-19.7c-0.1-6.5-1.8-12.2-5-17.2c-3.2-5-8.1-9-14.6-11.9
			c-6.5-2.9-14.8-4.1-24.9-3.5c-18.8,0.8-38.4,1.9-58.8,3.2l-4,124.9l38.5,6l1.9-27.3l37.3,30.6l26.2-26.7l-32.2-23.6
			C667.3,114.5,673.8,109.3,679.2,103.2z M650.9,79.7c-0.2,1.1-0.2,1.6-0.3,1.8c-0.3,0.9-0.9,2.2-2,3.8c-1.1,1.6-2.7,3.3-4.7,5
			c-2,1.7-4.5,3.3-7.4,4.7c-2.9,1.5-6.3,2.5-10.2,3.2l2.9-25.5c5.2-1.8,9.3-2.6,12.3-2.5c3,0.1,5.2,0.7,6.6,1.8
			c1.4,1.1,2.2,2.4,2.5,3.9C651,77.4,651.1,78.7,650.9,79.7z"/>
		<linearGradient id="SVGID_5_" gradientUnits="userSpaceOnUse" x1="198.9358" y1="60.6407" x2="198.9358" y2="170.77">
			<stop  offset="0" style="stop-color:#FF2D1D"/>
			<stop  offset="1" style="stop-color:#C62231"/>
		</linearGradient>
		<path fill="url(#SVGID_5_)" stroke="#FFFFFF" stroke-width="5" stroke-miterlimit="10" d="M197.5,16.9l5.5-5.2
			c0.7-0.7,0.8-1.9,0.1-2.6c-0.7-0.7-1.9-0.8-2.6-0.1l-5.5,5.2c-0.7,0.7-0.8,1.9-0.1,2.6C195.5,17.6,196.7,17.6,197.5,16.9z"/>
		<linearGradient id="SVGID_6_" gradientUnits="userSpaceOnUse" x1="188.2127" y1="60.6407" x2="188.2127" y2="170.77">
			<stop  offset="0" style="stop-color:#FF2D1D"/>
			<stop  offset="1" style="stop-color:#C62231"/>
		</linearGradient>
		<path fill="url(#SVGID_6_)" stroke="#FFFFFF" stroke-width="5" stroke-miterlimit="10" d="M188,13.8c1,0,1.9-0.8,1.9-1.8l0.2-7.6
			c0-1-0.8-1.9-1.8-1.9c-1,0-1.9,0.8-1.9,1.8l-0.2,7.6C186.2,12.9,187,13.8,188,13.8z"/>
		<linearGradient id="SVGID_7_" gradientUnits="userSpaceOnUse" x1="177.1998" y1="60.6407" x2="177.1998" y2="170.77">
			<stop  offset="0" style="stop-color:#FF2D1D"/>
			<stop  offset="1" style="stop-color:#C62231"/>
		</linearGradient>
		<path fill="url(#SVGID_7_)" stroke="#FFFFFF" stroke-width="5" stroke-miterlimit="10" d="M178.5,16.3c0.7,0.7,1.9,0.8,2.6,0.1
			c0.7-0.7,0.8-1.9,0.1-2.6L176,8.3c-0.7-0.7-1.9-0.8-2.6-0.1c-0.7,0.7-0.8,1.9-0.1,2.6L178.5,16.3z"/>
		<linearGradient id="SVGID_8_" gradientUnits="userSpaceOnUse" x1="198.2945" y1="60.6407" x2="198.2945" y2="170.77">
			<stop  offset="0" style="stop-color:#FF2D1D"/>
			<stop  offset="1" style="stop-color:#C62231"/>
		</linearGradient>
		<path fill="url(#SVGID_8_)" stroke="#FFFFFF" stroke-width="5" stroke-miterlimit="10" d="M199.5,38.7c0.7,0.7,1.9,0.8,2.6,0.1
			c0.7-0.7,0.8-1.9,0.1-2.6l-5.2-5.5c-0.7-0.7-1.9-0.8-2.6-0.1c-0.7,0.7-0.8,1.9-0.1,2.6L199.5,38.7z"/>
		<linearGradient id="SVGID_9_" gradientUnits="userSpaceOnUse" x1="203.1356" y1="60.6407" x2="203.1356" y2="170.77">
			<stop  offset="0" style="stop-color:#FF2D1D"/>
			<stop  offset="1" style="stop-color:#C62231"/>
		</linearGradient>
		<path fill="url(#SVGID_9_)" stroke="#FFFFFF" stroke-width="5" stroke-miterlimit="10" d="M197.5,23.8c0,1,0.8,1.9,1.8,1.9
			l7.6,0.2c1,0,1.9-0.8,1.9-1.8c0-1-0.8-1.9-1.8-1.9l-7.6-0.2C198.4,21.9,197.5,22.7,197.5,23.8z"/>
		<linearGradient id="SVGID_10_" gradientUnits="userSpaceOnUse" x1="174.683" y1="61.0748" x2="174.683" y2="171.7935">
			<stop  offset="0" style="stop-color:#FF2D1D"/>
			<stop  offset="1" style="stop-color:#C62231"/>
		</linearGradient>
		<path fill="url(#SVGID_10_)" stroke="#FFFFFF" stroke-width="5" stroke-miterlimit="10" d="M187.3,27.1c1.6-0.2,2.8-1.6,2.8-3.1
			c0-1.9-1.6-3.1-3.5-2.9c-13.8,1.5-24.9,12.5-27.5,25.5h6.3C168,36.5,176.7,28.3,187.3,27.1z"/>
		<linearGradient id="SVGID_11_" gradientUnits="userSpaceOnUse" x1="187.3141" y1="60.6407" x2="187.3141" y2="170.77">
			<stop  offset="0" style="stop-color:#FF2D1D"/>
			<stop  offset="1" style="stop-color:#C62231"/>
		</linearGradient>
		<path fill="url(#SVGID_11_)" stroke="#FFFFFF" stroke-width="5" stroke-miterlimit="10" d="M185.6,35l-0.2,7.6
			c0,1,0.8,1.9,1.8,1.9c1,0,1.9-0.8,1.9-1.8l0.2-7.6c0-1-0.8-1.9-1.8-1.9C186.4,33.2,185.6,34,185.6,35z"/>
		<linearGradient id="SVGID_12_" gradientUnits="userSpaceOnUse" x1="57.508" y1="60.6407" x2="57.508" y2="170.77">
			<stop  offset="0" style="stop-color:#FF2D1D"/>
			<stop  offset="1" style="stop-color:#C62231"/>
		</linearGradient>
		<path fill="url(#SVGID_12_)" stroke="#FFFFFF" stroke-width="5" stroke-miterlimit="10" d="M88.7,83.7c6.8-5.7,11.4-11,13.9-15.9
			c2.4-4.9,3.5-9.4,3.1-13.4c-0.4-4-1.7-7.6-4.1-10.8c-2.3-3.2-4.9-5.8-7.5-7.9c-2.7-2.1-6.1-4.3-10.4-6.6c-4.4-1.2-9.5-2-15.1-2.3
			C63,26.5,55.3,26.5,45.5,27c-9.8,0.4-22.3,1.7-37.5,3.8L2.6,155.7c14.2,2.3,26.4,3.8,36.8,4.4c10.3,0.6,18.8,0.7,25.3,0.3
			c6.5-0.4,11.8-1.1,15.7-2c3.9-0.9,6.6-1.7,8-2.5c1.4-0.7,2.1-1.1,2.2-1.2c4.6-4.1,8.3-7.9,11.1-11.4c2.8-3.5,5.3-7.6,7.5-12.3
			c2.2-4.7,3.3-9.7,3.2-14.9c-0.1-5.2-1.9-10.6-5.4-16.2C103.5,94.3,97.4,88.9,88.7,83.7z M48.9,63.2c4.3-1.5,7.6-2,9.7-1.5
			c2.1,0.5,3.5,1.3,4.3,2.5c0.7,1.2,1,3,0.8,5.4c-0.9,2.6-1.9,4.7-3.1,6.2c-1.2,1.5-2.9,2.7-5,3.7c-2.1,1-4.8,1.2-8.1,0.5L48.9,63.2
			z M66.5,121.4c-1.5,1.5-3.9,2.7-7.2,3.5c-3.3,0.9-7.9,0.9-13.7,0.1l-1.2-16.9c5.2-2.2,9.5-3.3,12.8-3.5c3.3-0.1,5.8,0.3,7.5,1.2
			c1.8,0.9,3,2.2,3.7,3.6c0.7,1.5,1.1,2.8,1.2,3.8c0.1,1.1,0.2,1.7,0.1,1.8C69.1,117.9,68,120,66.5,121.4z"/>
		<polygon fill="#FFFFFF" points="205.6,126.2 204.7,128.8 209.3,130.7 210.3,128 207,126.1 		"/>
	</g>
	<g>
		<linearGradient id="SVGID_13_" gradientUnits="userSpaceOnUse" x1="1002.9834" y1="51.0202" x2="1002.9834" y2="156.1635">
			<stop  offset="0" style="stop-color:#FF8600"/>
			<stop  offset="1" style="stop-color:#FF4B00"/>
		</linearGradient>
		<polygon fill="url(#SVGID_13_)" stroke="#F5F5F5" stroke-width="5" stroke-miterlimit="10" points="961.2,34.1 958.1,73.4 
			979.3,72.4 972.1,163.5 1017.8,160.3 1022.5,70.3 1041.8,69.1 1047.9,31.3 		"/>
		<linearGradient id="SVGID_14_" gradientUnits="userSpaceOnUse" x1="942.4584" y1="51.0202" x2="942.4584" y2="156.1635">
			<stop  offset="0" style="stop-color:#FF8600"/>
			<stop  offset="1" style="stop-color:#FF4B00"/>
		</linearGradient>
		<path fill="url(#SVGID_14_)" stroke="#F5F5F5" stroke-width="5" stroke-miterlimit="10" d="M941,23.6l5.5-5.2
			c0.7-0.7,0.8-1.9,0.1-2.6c-0.7-0.7-1.9-0.8-2.6-0.1l-5.5,5.2c-0.7,0.7-0.8,1.9-0.1,2.6C939.1,24.3,940.2,24.3,941,23.6z"/>
		<linearGradient id="SVGID_15_" gradientUnits="userSpaceOnUse" x1="931.7353" y1="51.0202" x2="931.7353" y2="156.1635">
			<stop  offset="0" style="stop-color:#FF8600"/>
			<stop  offset="1" style="stop-color:#FF4B00"/>
		</linearGradient>
		<path fill="url(#SVGID_15_)" stroke="#F5F5F5" stroke-width="5" stroke-miterlimit="10" d="M931.6,20.5c1,0,1.9-0.8,1.9-1.8
			l0.2-7.6c0-1-0.8-1.9-1.8-1.9c-1,0-1.9,0.8-1.9,1.8l-0.2,7.6C929.7,19.6,930.5,20.5,931.6,20.5z"/>
		<linearGradient id="SVGID_16_" gradientUnits="userSpaceOnUse" x1="905.1956" y1="50.6413" x2="905.1956" y2="156.1309">
			<stop  offset="0" style="stop-color:#FF8600"/>
			<stop  offset="1" style="stop-color:#FF4B00"/>
		</linearGradient>
		<path fill="url(#SVGID_16_)" stroke="#F5F5F5" stroke-width="5" stroke-miterlimit="10" d="M920,70.1v-6.4c0-3.4-2.5-6.2-5.9-6.2
			h-17.7c-3.4,0-6.4,2.8-6.4,6.2v6.5c-20,6.4-33.9,24.9-33.9,46.7c0,27.2,22,49.1,49.2,49.1c27.2,0,49-22,49-49.1
			C954.3,95,940,76.4,920,70.1z M891.8,90.9c-9.7,5.1-15.6,15-15.6,25.9c0,2.5-2.1,4.6-4.6,4.6c-2.5,0-4.6-2.1-4.6-4.6
			c0-14.3,7.9-27.4,20.6-34c2.2-1.2,5-0.3,6.2,1.9C894.9,87,894,89.7,891.8,90.9z"/>
		<linearGradient id="SVGID_17_" gradientUnits="userSpaceOnUse" x1="920.7224" y1="51.0202" x2="920.7224" y2="156.1635">
			<stop  offset="0" style="stop-color:#FF8600"/>
			<stop  offset="1" style="stop-color:#FF4B00"/>
		</linearGradient>
		<path fill="url(#SVGID_17_)" stroke="#F5F5F5" stroke-width="5" stroke-miterlimit="10" d="M922,23.1c0.7,0.7,1.9,0.8,2.6,0.1
			c0.7-0.7,0.8-1.9,0.1-2.6l-5.2-5.5c-0.7-0.7-1.9-0.8-2.6-0.1c-0.7,0.7-0.8,1.9-0.1,2.6L922,23.1z"/>
		<linearGradient id="SVGID_18_" gradientUnits="userSpaceOnUse" x1="941.8171" y1="51.0202" x2="941.8171" y2="156.1635">
			<stop  offset="0" style="stop-color:#FF8600"/>
			<stop  offset="1" style="stop-color:#FF4B00"/>
		</linearGradient>
		<path fill="url(#SVGID_18_)" stroke="#F5F5F5" stroke-width="5" stroke-miterlimit="10" d="M943.1,45.4c0.7,0.7,1.9,0.8,2.6,0.1
			c0.7-0.7,0.8-1.9,0.1-2.6l-5.2-5.5c-0.7-0.7-1.9-0.8-2.6-0.1c-0.7,0.7-0.8,1.9-0.1,2.6L943.1,45.4z"/>
		<linearGradient id="SVGID_19_" gradientUnits="userSpaceOnUse" x1="946.6583" y1="51.0202" x2="946.6583" y2="156.1635">
			<stop  offset="0" style="stop-color:#FF8600"/>
			<stop  offset="1" style="stop-color:#FF4B00"/>
		</linearGradient>
		<path fill="url(#SVGID_19_)" stroke="#F5F5F5" stroke-width="5" stroke-miterlimit="10" d="M941,30.5c0,1,0.8,1.9,1.8,1.9l7.6,0.2
			c1,0,1.9-0.8,1.9-1.8c0-1-0.8-1.9-1.8-1.9l-7.6-0.2C941.9,28.6,941,29.4,941,30.5z"/>
		<linearGradient id="SVGID_20_" gradientUnits="userSpaceOnUse" x1="918.2056" y1="50.6736" x2="918.2056" y2="155.2553">
			<stop  offset="0" style="stop-color:#FF8600"/>
			<stop  offset="1" style="stop-color:#FF4B00"/>
		</linearGradient>
		<path fill="url(#SVGID_20_)" stroke="#F5F5F5" stroke-width="5" stroke-miterlimit="10" d="M930.9,33.4c1.6-0.2,2.8-1.4,2.8-3
			c0-1.9-1.6-3.4-3.5-3.2c-13.8,1.5-24.9,12.2-27.5,25.2h6.3C911.5,42.5,920.2,34.6,930.9,33.4z"/>
		<linearGradient id="SVGID_21_" gradientUnits="userSpaceOnUse" x1="930.8367" y1="51.0202" x2="930.8367" y2="156.1635">
			<stop  offset="0" style="stop-color:#FF8600"/>
			<stop  offset="1" style="stop-color:#FF4B00"/>
		</linearGradient>
		<path fill="url(#SVGID_21_)" stroke="#F5F5F5" stroke-width="5" stroke-miterlimit="10" d="M929.1,41.7l-0.2,7.6
			c0,1,0.8,1.9,1.8,1.9c1,0,1.9-0.8,1.9-1.8l0.2-7.6c0-1-0.8-1.9-1.8-1.9C930,39.9,929.1,40.7,929.1,41.7z"/>
		<linearGradient id="SVGID_22_" gradientUnits="userSpaceOnUse" x1="800.8149" y1="51.0202" x2="800.8149" y2="156.1635">
			<stop  offset="0" style="stop-color:#FF8600"/>
			<stop  offset="1" style="stop-color:#FF4B00"/>
		</linearGradient>
		<path fill="url(#SVGID_22_)" stroke="#F5F5F5" stroke-width="5" stroke-miterlimit="10" d="M831.8,92.8c6.8-5.7,11.4-11,13.8-15.8
			c2.4-4.9,3.5-9.3,3.1-13.3c-0.4-4-1.7-7.6-4-10.7c-2.3-3.1-4.8-5.8-7.5-7.9c-2.6-2.1-6.1-4.3-10.3-6.5c-4.4-1.2-9.4-1.9-15-2.3
			c-5.6-0.3-13.3-0.3-23,0.1c-9.7,0.4-22.1,1.7-37.1,3.8l-5.4,123.8c14.1,2.3,26.2,3.8,36.5,4.4c10.2,0.6,18.6,0.7,25.1,0.3
			c6.5-0.4,11.7-1.1,15.6-2s6.6-1.7,7.9-2.4c1.4-0.7,2.1-1.1,2.2-1.2c4.6-4.1,8.2-7.9,11-11.3c2.8-3.5,5.3-7.5,7.5-12.2
			c2.2-4.7,3.3-9.6,3.2-14.8c-0.1-5.2-1.9-10.6-5.4-16.1C846.4,103.3,840.4,98,831.8,92.8z M792.3,72.5c4.3-1.5,7.5-2,9.6-1.5
			c2.1,0.5,3.5,1.3,4.2,2.4c0.7,1.2,1,2.9,0.8,5.4c-0.9,2.6-1.9,4.6-3.1,6.1c-1.2,1.5-2.8,2.7-5,3.7c-2.1,1-4.8,1.2-8,0.5
			L792.3,72.5z M809.7,130.2c-1.5,1.5-3.9,2.6-7.2,3.5c-3.3,0.9-7.8,0.9-13.6,0.1l-1.2-16.7c5.2-2.2,9.4-3.3,12.7-3.5
			c3.2-0.1,5.7,0.2,7.5,1.2c1.8,0.9,3,2.1,3.7,3.6c0.7,1.5,1.1,2.7,1.2,3.8c0.1,1.1,0.2,1.7,0.1,1.8
			C812.3,126.7,811.2,128.8,809.7,130.2z"/>
	</g>
</g>
<g id="Calque_2" display="none">
</g>
</svg>
