<svg id="Calque_1" data-name="Calque 1" xmlns="http://www.w3.org/2000/svg" viewBox="0 0 392.6 316.9"><defs><style>.cls-1{fill:#262321;}</style></defs><title>device_pc</title><path class="cls-1" d="M383.3,0H9.3A9.35,9.35,0,0,0,0,9.3V267.4a9.35,9.35,0,0,0,9.3,9.3H149.9v22.2c0,0.3.1,0.6,0.1,1H129.8a8.5,8.5,0,0,0,0,17H267.4a8.5,8.5,0,0,0,0-17H247.2c0-.3.1-0.6,0.1-1V276.7h136a9.35,9.35,0,0,0,9.3-9.3V9.3A9.41,9.41,0,0,0,383.3,0h0Zm-17,226.9a9.35,9.35,0,0,1-9.3,9.3H35.5a9.35,9.35,0,0,1-9.3-9.3V31.2a9.28,9.28,0,0,1,9.3-9.3H357a9.35,9.35,0,0,1,9.3,9.3V226.9Z"/></svg>