<svg id="Calque_1" data-name="Calque 1" xmlns="http://www.w3.org/2000/svg" viewBox="0 0 394.7 394.3"><defs><style>.cls-1{fill:#262321;}.cls-2{fill:#a4c63a;}</style></defs><title>device_mobile</title><path class="cls-1" d="M190.2,327.1H42.7a5.23,5.23,0,0,1-5.2-5.2V41.7a5.23,5.23,0,0,1,5.2-5.2H253.1a5.16,5.16,0,0,1,5.2,5.2V78.8h37.5V24.7A24.84,24.84,0,0,0,271,0H24.7A24.75,24.75,0,0,0,0,24.7V369.6a24.75,24.75,0,0,0,24.7,24.7H195.9a47.94,47.94,0,0,1-5.8-22.5V327.1h0.1Zm-42.3,49.1a15.6,15.6,0,1,1,15.6-15.6,15.62,15.62,0,0,1-15.6,15.6h0Z"/><path class="cls-1" d="M372.2,105.1H239a22.53,22.53,0,0,0-22.5,22.5V371.7A22.53,22.53,0,0,0,239,394.2H372.2a22.53,22.53,0,0,0,22.5-22.5v-244a22.56,22.56,0,0,0-22.5-22.6h0ZM305.6,381.6a14.2,14.2,0,1,1,14.2-14.2,14.19,14.19,0,0,1-14.2,14.2h0Zm63.9-42.9a4.69,4.69,0,0,1-4.7,4.7H246.3a4.69,4.69,0,0,1-4.7-4.7V133.8a4.69,4.69,0,0,1,4.7-4.7H364.8a4.69,4.69,0,0,1,4.7,4.7V338.7Z"/><path class="cls-2" d="M57.3,229.3a7.41,7.41,0,0,0-7.5,7.4v29.4a7.5,7.5,0,0,0,15,0V236.7a7.47,7.47,0,0,0-7.5-7.4h0Z"/><path class="cls-2" d="M169.1,229.3a7.41,7.41,0,0,1,7.5,7.4v29.4a7.5,7.5,0,0,1-15,0V236.7a7.34,7.34,0,0,1,7.5-7.4h0Z"/><path class="cls-2" d="M67.8,229.3v53c0,5.9,7,8.8,8.8,8.8h11v22.1a7.5,7.5,0,0,0,15,0V291.1h20.6v22.1a7.5,7.5,0,0,0,15,0V291.1H150c1.8,0,8.8-2.9,8.8-8.8v-53h-91Z"/><path class="cls-2" d="M159,226.3a36.59,36.59,0,0,0-10.1-24.9h0l8.3-8.3a3,3,0,0,0-4.2-4.2l-8.3,8.3-0.1.1a50.65,50.65,0,0,0-63.4.7,1.56,1.56,0,0,0-.6-0.8l-8.3-8.3a3,3,0,1,0-4.2,4.2l8.3,8.3a2.18,2.18,0,0,0,.8.5,36.48,36.48,0,0,0-9.6,24.4H159Zm-26.9-23.5a5.9,5.9,0,1,1-5.9,5.9,5.91,5.91,0,0,1,5.9-5.9h0Zm-38.2,0a5.85,5.85,0,0,1,5.9,5.9,5.9,5.9,0,0,1-11.8,0,5.85,5.85,0,0,1,5.9-5.9h0Z"/><path class="cls-2" d="M270.9,277.4a4.72,4.72,0,0,0-4.8,4.7v18.8a4.8,4.8,0,0,0,9.6,0V282.1a4.78,4.78,0,0,0-4.8-4.7h0Z"/><path class="cls-2" d="M342.1,277.4a4.72,4.72,0,0,1,4.8,4.7v18.8a4.78,4.78,0,0,1-4.8,4.7,4.72,4.72,0,0,1-4.8-4.7V282.1a4.78,4.78,0,0,1,4.8-4.7h0Z"/><path class="cls-2" d="M277.6,277.4v33.8c0,3.8,4.5,5.6,5.6,5.6h7v14.1a4.8,4.8,0,0,0,9.6,0V316.8H313v14.1a4.78,4.78,0,0,0,4.8,4.7,4.72,4.72,0,0,0,4.8-4.7V316.8h7.5c1.2,0,5.6-1.9,5.6-5.6V277.4H277.6Z"/><path class="cls-2" d="M335.7,275.5a23.54,23.54,0,0,0-6.4-15.9h0l5.3-5.3a1.91,1.91,0,0,0-2.7-2.7l-5.3,5.3-0.1.1a32.15,32.15,0,0,0-40.3.4,1,1,0,0,0-.4-0.5l-5.3-5.3a1.91,1.91,0,0,0-2.7,2.7l5.3,5.3a0.85,0.85,0,0,0,.5.3,23.4,23.4,0,0,0-6.1,15.5h58.2v0.1Zm-17.1-15a3.8,3.8,0,1,1-3.8,3.8,3.8,3.8,0,0,1,3.8-3.8h0Zm-24.4,0a3.8,3.8,0,1,1-3.8,3.8,3.86,3.86,0,0,1,3.8-3.8h0Z"/></svg>